<?xml version="1.0" encoding="utf-8"?>
<svg xmlns="http://www.w3.org/2000/svg" data-name="Layer 1" id="Layer_1" version="1.1" viewBox="0 0 5946.89 1534.22">
  <defs>
    <style>
      .cls-1 {
        fill: #0c7cbd;
        stroke-width: 0px;
      }

      .cls-2 {
        fill: #fff;
        font-family: Inter-Bold, Inter;
        font-size: 411.3px;
        font-weight: 700;
        letter-spacing: 0em;
      }
    </style>
  </defs>
  <g>
    <g>
      <path class="cls-1" d="M766.54,1534.22v-640.61h558.92v109.2h-449.72v422.21h450.56v109.2h-559.76Z"/>
      <rect class="cls-1" height="92.02" width="346.53" x="954.85" y="1167.9"/>
    </g>
    <g>
      <path class="cls-1" d="M4031.18,1534.22v-640.61h558.92v109.2h-449.72v422.21h450.56v109.2h-559.76Z"/>
      <rect class="cls-1" height="92.02" width="346.53" x="4219.49" y="1167.9"/>
    </g>
    <path class="cls-1" d="M2057.42,1534.22l-93.74-164.24h-295.78l51.59-88.56h191.74l-139.3-233.9-283.75,486.7h-124.68l359.42-605.36c6.3-10.89,13.75-19.48,22.37-25.8,8.59-6.3,18.91-9.45,30.93-9.45s22.22,3.16,30.54,9.45c8.29,6.32,15.6,14.91,21.93,25.8l360.27,605.36h-131.54Z"/>
    <path class="cls-1" d="M2831.69,1534.22l-158.21-189.19h-233.89v-96.32h260.54c39.55,0,69.36-10.6,89.42-31.81,20.08-21.21,30.12-52.45,30.12-93.72s-10.46-71.66-31.35-91.16c-20.88-19.47-50.2-29.22-87.95-29.22h-339.89v531.41h-109.2v-640.61h448.85c35.52,0,67.36,5.3,95.45,15.9,28.07,10.61,51.86,25.79,71.37,45.57,19.47,19.78,34.39,43.72,44.72,71.79,10.31,28.11,15.46,59.63,15.46,94.6,0,52.18-11.17,95.87-33.51,131.12-22.37,35.25-54.19,60.62-95.45,76.1l188.31,205.53h-154.78Z"/>
    <path class="cls-1" d="M3860.51,1534.22l-119.51-447.97-177.13,406.7c-6.31,13.2-13.89,23.36-22.79,30.54-8.9,7.16-19.93,10.73-33.1,10.73-25.25,0-43.85-13.75-55.9-41.27l-176.25-406.7-119.54,447.97h-107.49l160.81-596.73c7.43-29.81,25.5-44.73,54.17-44.73,11.47,0,22.22,3.16,32.25,9.47,10.01,6.3,17.61,15.46,22.79,27.5l192.6,441.97,192.61-441.97c10.31-24.64,27.79-36.97,52.44-36.97,26.36,0,43.85,14.91,52.47,44.73l159.93,596.73h-108.35Z"/>
    <path class="cls-1" d="M4757.31,1069.03v465.19h-104.05v-575.26c0-20.06,5.01-35.97,15.05-47.73,10.03-11.74,23.64-17.62,40.85-17.62,8.01,0,15.75,1.72,23.21,5.17,7.44,3.42,15.19,9.16,23.22,17.18l441.1,437.68v-460.03h104.04v575.26c0,20.63-5.03,36.68-15.05,48.14-10.04,11.47-23.07,17.21-39.12,17.21-17.77,0-34.39-7.75-49.87-23.22l-439.39-441.97Z"/>
    <path class="cls-1" d="M5600.37,1534.22v-515.91h-237.31v-124.71h583.83v124.71h-237.31v515.91h-109.21Z"/>
    <path class="cls-1" d="M302.67,1534.22c-43.43,0-83.6-8.34-120.47-25.08-36.87-16.71-68.86-39.61-96.03-68.66-27.15-29.03-48.31-63.49-63.45-103.41-15.16-39.89-22.72-83.02-22.72-129.38s7.59-89.79,22.76-128.52c15.16-38.74,36.34-71.74,63.51-99.01,27.19-27.28,59.25-48.41,96.17-63.38,36.91-14.97,77.13-22.43,120.63-22.43h338.27v111.78h-338.27c-28.05,0-53.96,5.14-77.7,15.39-23.77,10.28-44.21,24.51-61.4,42.69-17.18,18.19-30.61,39.91-40.35,65.14-9.74,25.24-14.58,53.1-14.58,83.62s4.84,57.8,14.58,83.62c9.74,25.81,23.17,47.97,40.35,66.45,17.19,18.49,37.63,33.01,61.4,43.57,23.73,10.55,49.64,15.84,77.7,15.84h267v-166.35h-281.61v-94.19h390.65v372.32h-376.43Z"/>
  </g>
  <g>
    <path class="cls-1" d="M4929.48,277.29c10.58-116.29,60.55-201.84,165.86-248.34,119.77-52.88,308.5-43.86,378.93,116.85,175.48-33.32,290.1,85.75,280.18,218.76,143.85-8.95,201.19,117.14,191.35,203.56-10.78,94.65-85.48,162.92-183.7,163.71-163.24,1.31-326.5.4-489.75.42-120.53.02-241.07.92-361.59-.24-93.55-.9-170.02-36.7-215.75-121.47-41.86-77.6-37.69-156.87,9.87-230.34,50.98-78.75,128.39-108.53,224.6-102.92Z"/>
    <text class="cls-2" transform="translate(4927.33 600.45)">
      <tspan x="0" y="0">API</tspan>
    </text>
  </g>
  
</svg>